<svg xmlns="http://www.w3.org/2000/svg" version="1.1" xmlns:xlink="http://www.w3.org/1999/xlink" xmlns:svgjs="http://svgjs.dev/svgjs" width="1000" height="1000" viewBox="0 0 1000 1000"><rect width="1000" height="1000" fill="#ffffff"></rect><g transform="matrix(0.7,0,0,0.7,149.57575757575756,394.8505623715812)"><svg viewBox="0 0 396 119" data-background-color="#ffffff" preserveAspectRatio="xMidYMid meet" height="300" width="1000" xmlns="http://www.w3.org/2000/svg" xmlns:xlink="http://www.w3.org/1999/xlink"><g id="tight-bounds" transform="matrix(1,0,0,1,0.2400000000000091,0.0846813227706491)"><svg viewBox="0 0 395.52 118.8306373544587" height="118.8306373544587" width="395.52"><g><svg viewBox="0 0 634.3024623503065 190.57080773814087" height="118.8306373544587" width="395.52"><g transform="matrix(1,0,0,1,238.78246235030656,49.32042371032928)"><svg viewBox="0 0 395.52 91.92996031748231" height="91.92996031748231" width="395.52"><g id="textblocktransform"><svg viewBox="0 0 395.52 91.92996031748231" height="91.92996031748231" width="395.52" id="textblock"><g><svg viewBox="0 0 395.52 49.582627852084975" height="49.582627852084975" width="395.52"><g transform="matrix(1,0,0,1,0,0)"><svg width="395.52" viewBox="1.2000000476837158 -35.0099983215332 277.5799865722656 35.0099983215332" height="49.582627852084975" data-palette-color="url(#f9952174-3ec1-4f4d-b701-b6c87d7e5b14)"><g class="wordmark-text-0" data-fill-palette-color="primary" id="text-0"></g></svg></g></svg></g><g transform="matrix(1,0,0,1,0,61.28789630489379)"><svg viewBox="0 0 395.52 30.642064012588513" height="30.642064012588513" width="395.52"><g transform="matrix(1,0,0,1,0,0)"><svg width="395.52" viewBox="1.340000033378601 -37.70000076293945 496.33001708984375 38.459999084472656" height="30.642064012588513" data-palette-color="url(#2900af9b-36d0-4f75-a3a5-54917247de1d)"></svg></g></svg></g></svg></g></svg></g><g><svg viewBox="0 0 227.07719389749775 190.57080773814087" height="190.57080773814087" width="227.07719389749775"><g><svg xmlns="http://www.w3.org/2000/svg" xmlns:xlink="http://www.w3.org/1999/xlink" version="1.0" x="0" y="0" viewBox="14.422253608703613 20.09999656677246 71.2554931640625 59.80000305175781" enable-background="new 0 0 100 100" xml:space="preserve" height="190.57080773814087" width="227.07719389749775" class="icon-icon-0" data-fill-palette-color="accent" id="icon-0"></svg></g></svg></g></svg></g><defs></defs><mask id="19e20906-b9b4-4cc7-abe5-c46bc81bede7"><g id="SvgjsG2335"><svg viewBox="0 0 395.52 118.8306373544587" height="118.8306373544587" width="395.52"><g><svg viewBox="0 0 634.3024623503065 190.57080773814087" height="118.8306373544587" width="395.52"><g transform="matrix(1,0,0,1,238.78246235030656,49.32042371032928)"><svg viewBox="0 0 395.52 91.92996031748231" height="91.92996031748231" width="395.52"><g id="SvgjsG2334"><svg viewBox="0 0 395.52 91.92996031748231" height="91.92996031748231" width="395.52" id="SvgjsSvg2333"><g><svg viewBox="0 0 395.52 49.582627852084975" height="49.582627852084975" width="395.52"><g transform="matrix(1,0,0,1,0,0)"><svg width="395.52" viewBox="1.2000000476837158 -35.0099983215332 277.5799865722656 35.0099983215332" height="49.582627852084975" data-palette-color="url(#f9952174-3ec1-4f4d-b701-b6c87d7e5b14)"><g class="wordmark-text-0" data-fill-palette-color="primary" id="SvgjsG2332"><path d="M1.2-24.51L1.2-24.51Q1.2-26.68 2.03-28.59 2.86-30.49 4.28-31.92 5.71-33.35 7.62-34.18 9.52-35.01 11.69-35.01L11.69-35.01 27.76-35.01 27.76-28 11.69-28Q10.96-28 10.33-27.73 9.69-27.47 9.22-26.99 8.74-26.51 8.47-25.88 8.2-25.24 8.2-24.51L8.2-24.51Q8.2-23.78 8.47-23.13 8.74-22.49 9.22-22.01 9.69-21.53 10.33-21.26 10.96-21 11.69-21L11.69-21 18.7-21Q20.87-21 22.79-20.18 24.71-19.36 26.14-17.93 27.56-16.5 28.38-14.59 29.2-12.67 29.2-10.5L29.2-10.5Q29.2-8.33 28.38-6.42 27.56-4.52 26.14-3.09 24.71-1.66 22.79-0.83 20.87 0 18.7 0L18.7 0 3.15 0 3.15-7.01 18.7-7.01Q19.43-7.01 20.07-7.28 20.7-7.54 21.18-8.02 21.66-8.5 21.92-9.13 22.19-9.77 22.19-10.5L22.19-10.5Q22.19-11.23 21.92-11.87 21.66-12.5 21.18-12.98 20.7-13.45 20.07-13.72 19.43-13.99 18.7-13.99L18.7-13.99 11.69-13.99Q9.52-13.99 7.62-14.82 5.71-15.65 4.28-17.08 2.86-18.51 2.03-20.42 1.2-22.34 1.2-24.51ZM40.79-13.99L40.79 0 33.79 0 33.79-35.01 40.79-35.01 40.79-21 54.78-21 54.78-35.01 61.79-35.01 61.79 0 54.78 0 54.78-13.99 40.79-13.99ZM82.29-28L75.29-28 75.29-13.99 82.29-13.99Q83.74-13.99 85-14.54 86.27-15.09 87.23-16.04 88.18-16.99 88.73-18.27 89.28-19.56 89.28-21L89.28-21Q89.28-22.44 88.73-23.72 88.18-25 87.23-25.95 86.27-26.9 85-27.45 83.74-28 82.29-28L82.29-28ZM75.29-7.01L75.29 0 68.28 0 68.28-35.01 82.29-35.01Q84.22-35.01 86.01-34.51 87.79-34.01 89.34-33.09 90.89-32.18 92.17-30.9 93.45-29.61 94.37-28.05 95.28-26.49 95.78-24.71 96.28-22.92 96.28-21L96.28-21Q96.28-19.19 95.83-17.48 95.38-15.77 94.54-14.23 93.7-12.7 92.48-11.4 91.25-10.11 89.74-9.16L89.74-9.16 93.62 0 86.18 0 83.12-7.06 75.29-7.01ZM124.87-7.01L124.87 0 100.87 0 100.87-35.01 124.87-35.01 124.87-28 107.88-28 107.88-21 119.38-21 119.38-13.99 107.88-13.99 107.88-7.01 124.87-7.01ZM153.77-7.01L153.77 0 129.78 0 129.78-35.01 153.77-35.01 153.77-28 136.78-28 136.78-21 148.28-21 148.28-13.99 136.78-13.99 136.78-7.01 153.77-7.01Z" fill="white"></path></g></svg></g></svg></g><g transform="matrix(1,0,0,1,0,61.28789630489379)"><svg viewBox="0 0 395.52 30.642064012588513" height="30.642064012588513" width="395.52"><g transform="matrix(1,0,0,1,0,0)"><svg width="395.52" viewBox="1.340000033378601 -37.70000076293945 496.33001708984375 38.459999084472656" height="30.642064012588513" data-palette-color="url(#2900af9b-36d0-4f75-a3a5-54917247de1d)"></svg></g></svg></g></svg></g></svg></g><g><svg viewBox="0 0 227.07719389749775 190.57080773814087" height="190.57080773814087" width="227.07719389749775"><g><svg xmlns="http://www.w3.org/2000/svg" xmlns:xlink="http://www.w3.org/1999/xlink" version="1.0" x="0" y="0" viewBox="14.422253608703613 20.09999656677246 71.2554931640625 59.80000305175781" enable-background="new 0 0 100 100" xml:space="preserve" height="190.57080773814087" width="227.07719389749775" class="icon-icon-0" data-fill-palette-color="accent" id="SvgjsSvg2330"></svg></g></svg></g></svg></g><defs><mask></mask></defs></svg></g></mask><linearGradient x1="0.054" x2="0.941" y1="0.5" y2="0.5" id="f9952174-3ec1-4f4d-b701-b6c87d7e5b14"><stop stop-color="#0f3054" offset="0"></stop><stop stop-color="#3b8dcb" offset="0.498"></stop><stop stop-color="#0f3054" offset="1"></stop></linearGradient><rect width="395.5199890136719" height="118.83063507080078" fill="#000000" mask="url(#19e20906-b9b4-4cc7-abe5-c46bc81bede7)" data-fill-palette-color="primary"></rect><mask id="993f467e-7836-49fb-a156-e532476ce40f"><g id="SvgjsG2346"><svg viewBox="0 0 395.52 118.8306373544587" height="118.8306373544587" width="395.52"><g><svg viewBox="0 0 634.3024623503065 190.57080773814087" height="118.8306373544587" width="395.52"><g transform="matrix(1,0,0,1,238.78246235030656,49.32042371032928)"><svg viewBox="0 0 395.52 91.92996031748231" height="91.92996031748231" width="395.52"><g id="SvgjsG2345"><svg viewBox="0 0 395.52 91.92996031748231" height="91.92996031748231" width="395.52" id="SvgjsSvg2344"><g><svg viewBox="0 0 395.52 49.582627852084975" height="49.582627852084975" width="395.52"><g transform="matrix(1,0,0,1,0,0)"><svg width="395.52" viewBox="1.2000000476837158 -35.0099983215332 277.5799865722656 35.0099983215332" height="49.582627852084975" data-palette-color="url(#f9952174-3ec1-4f4d-b701-b6c87d7e5b14)"><g class="wordmark-text-0" data-fill-palette-color="primary" id="SvgjsG2343"><path d="M178.01-13.99L178.01 0 171 0 171-35.01 178.01-35.01 178.01-21 192-21 192-35.01 199.01-35.01 199.01 0 192 0 192-13.99 178.01-13.99ZM212.09-13.99L226.1-13.99 226.1-21Q226.1-22.44 225.55-23.72 225.01-25 224.05-25.95 223.1-26.9 221.82-27.45 220.54-28 219.1-28L219.1-28Q217.66-28 216.37-27.45 215.09-26.9 214.14-25.95 213.19-25 212.64-23.72 212.09-22.44 212.09-21L212.09-21 212.09-13.99ZM233.11-21L233.11 0 226.1 0 226.1-7.01 212.09-7.01 212.09 0 205.11 0 205.11-21Q205.11-23.9 206.21-26.45 207.31-29 209.2-30.91 211.09-32.81 213.64-33.91 216.19-35.01 219.1-35.01L219.1-35.01Q222-35.01 224.55-33.91 227.1-32.81 229.01-30.91 230.91-29 232.01-26.45 233.11-23.9 233.11-21L233.11-21ZM253.2-28L246.19-28 246.19-13.99 253.2-13.99Q254.64-13.99 255.91-14.54 257.18-15.09 258.13-16.04 259.08-16.99 259.63-18.27 260.18-19.56 260.18-21L260.18-21Q260.18-22.44 259.63-23.72 259.08-25 258.13-25.95 257.18-26.9 255.91-27.45 254.64-28 253.2-28L253.2-28ZM246.19-7.01L246.19 0 239.19 0 239.19-35.01 253.2-35.01Q255.13-35.01 256.91-34.51 258.69-34.01 260.24-33.09 261.79-32.18 263.08-30.9 264.36-29.61 265.27-28.05 266.19-26.49 266.69-24.71 267.19-22.92 267.19-21L267.19-21Q267.19-19.19 266.74-17.48 266.29-15.77 265.44-14.23 264.6-12.7 263.38-11.4 262.16-10.11 260.65-9.16L260.65-9.16 264.53 0 257.08 0 254.03-7.06 246.19-7.01ZM278.78-35.01L278.78 0 271.78 0 271.78-35.01 278.78-35.01Z" fill="white"></path></g></svg></g></svg></g><g transform="matrix(1,0,0,1,0,61.28789630489379)"><svg viewBox="0 0 395.52 30.642064012588513" height="30.642064012588513" width="395.52"><g transform="matrix(1,0,0,1,0,0)"><svg width="395.52" viewBox="1.340000033378601 -37.70000076293945 496.33001708984375 38.459999084472656" height="30.642064012588513" data-palette-color="url(#2900af9b-36d0-4f75-a3a5-54917247de1d)"><path d="M27.49-9.69L31.2-3.59Q28.76-1.49 25.73-0.37 22.71 0.76 19.46 0.76L19.46 0.76Q16.97 0.76 14.66 0.11 12.35-0.54 10.34-1.72 8.33-2.91 6.67-4.57 5-6.23 3.82-8.24 2.64-10.25 1.99-12.56 1.34-14.87 1.34-17.36L1.34-17.36Q1.34-19.85 1.99-22.17 2.64-24.49 3.82-26.5 5-28.52 6.67-30.18 8.33-31.84 10.34-33.02 12.35-34.2 14.66-34.85 16.97-35.5 19.46-35.5L19.46-35.5Q22.71-35.5 25.73-34.39 28.76-33.28 31.2-31.15L31.2-31.15 27.49-25.05Q25.95-26.71 23.85-27.6 21.75-28.49 19.46-28.49L19.46-28.49Q17.14-28.49 15.11-27.61 13.09-26.73 11.57-25.23 10.06-23.73 9.18-21.69 8.3-19.65 8.3-17.36L8.3-17.36Q8.3-15.06 9.18-13.05 10.06-11.04 11.57-9.52 13.09-8.01 15.11-7.13 17.14-6.25 19.46-6.25L19.46-6.25Q21.75-6.25 23.85-7.14 25.95-8.03 27.49-9.69L27.49-9.69ZM63.83-14.94L63.83 0 57.16 0 57.16-36.55 63.83-36.55 63.83-25Q65.02-25.9 66.29-26.28 67.56-26.66 68.88-26.66L68.88-26.66Q71.3-26.66 73.42-25.74 75.55-24.83 77.12-23.23 78.69-21.63 79.61-19.49 80.53-17.36 80.53-14.94L80.53-14.94 80.53 0 73.81 0 73.81-14.94 73.86-14.94Q73.86-15.97 73.47-16.88 73.08-17.8 72.4-18.48 71.71-19.17 70.81-19.56 69.91-19.95 68.88-19.95L68.88-19.95Q67.83-19.95 66.9-19.56 65.98-19.17 65.29-18.48 64.61-17.8 64.22-16.88 63.83-15.97 63.83-14.94L63.83-14.94ZM115.74-33.25L115.74-33.25Q115.74-32.32 115.39-31.52 115.03-30.71 114.42-30.11 113.81-29.52 112.99-29.16 112.17-28.81 111.25-28.81L111.25-28.81Q110.32-28.81 109.5-29.16 108.68-29.52 108.09-30.11 107.49-30.71 107.13-31.52 106.78-32.32 106.78-33.25L106.78-33.25Q106.78-34.16 107.13-34.97 107.49-35.79 108.09-36.39 108.68-36.99 109.5-37.34 110.32-37.7 111.25-37.7L111.25-37.7Q112.17-37.7 112.99-37.34 113.81-36.99 114.42-36.39 115.03-35.79 115.39-34.97 115.74-34.16 115.74-33.25ZM114.59-26.15L114.59 0 107.88 0 107.88-26.15 114.59-26.15ZM149-36.55L149 0 142.29 0 142.29-36.55 149-36.55ZM201.96-36.55L201.96 0 200.35 0 197.76-3.59Q196.81-2.73 195.75-1.99 194.69-1.25 193.51-0.7 192.34-0.15 191.11 0.17 189.88 0.49 188.61 0.49L188.61 0.49Q185.85 0.49 183.42-0.55 180.99-1.59 179.17-3.43 177.35-5.27 176.3-7.8 175.25-10.33 175.25-13.31L175.25-13.31Q175.25-16.26 176.3-18.8 177.35-21.34 179.17-23.19 180.99-25.05 183.42-26.1 185.85-27.15 188.61-27.15L188.61-27.15Q189.49-27.15 190.43-27 191.37-26.86 192.26-26.53 193.15-26.2 193.93-25.66 194.71-25.12 195.25-24.34L195.25-24.34 195.25-36.55 201.96-36.55ZM195.25-13.31L195.25-13.31Q195.25-14.67 194.72-15.95 194.2-17.24 193.29-18.23 192.39-19.21 191.18-19.81 189.97-20.41 188.61-20.41L188.61-20.41Q187.24-20.41 186.03-19.92 184.82-19.43 183.93-18.52 183.04-17.6 182.53-16.28 182.02-14.97 182.02-13.31L182.02-13.31Q182.02-11.87 182.53-10.57 183.04-9.28 183.93-8.3 184.82-7.32 186.03-6.76 187.24-6.2 188.61-6.2L188.61-6.2Q189.97-6.2 191.18-6.8 192.39-7.4 193.29-8.39 194.2-9.38 194.72-10.66 195.25-11.94 195.25-13.31ZM291.21-9.69L294.92-3.59Q292.48-1.49 289.45-0.37 286.43 0.76 283.18 0.76L283.18 0.76Q280.69 0.76 278.38 0.11 276.07-0.54 274.06-1.72 272.05-2.91 270.39-4.57 268.73-6.23 267.54-8.24 266.36-10.25 265.71-12.56 265.06-14.87 265.06-17.36L265.06-17.36Q265.06-19.85 265.71-22.17 266.36-24.49 267.54-26.5 268.73-28.52 270.39-30.18 272.05-31.84 274.06-33.02 276.07-34.2 278.38-34.85 280.69-35.5 283.18-35.5L283.18-35.5Q286.43-35.5 289.45-34.39 292.48-33.28 294.92-31.15L294.92-31.15 291.21-25.05Q289.67-26.71 287.57-27.6 285.47-28.49 283.18-28.49L283.18-28.49Q280.86-28.49 278.83-27.61 276.81-26.73 275.29-25.23 273.78-23.73 272.9-21.69 272.02-19.65 272.02-17.36L272.02-17.36Q272.02-15.06 272.9-13.05 273.78-11.04 275.29-9.52 276.81-8.01 278.83-7.13 280.86-6.25 283.18-6.25L283.18-6.25Q285.47-6.25 287.57-7.14 289.67-8.03 291.21-9.69L291.21-9.69ZM327.6-36.55L327.6 0 320.88 0 320.88-36.55 327.6-36.55ZM363.15-33.25L363.15-33.25Q363.15-32.32 362.8-31.52 362.44-30.71 361.83-30.11 361.22-29.52 360.41-29.16 359.59-28.81 358.66-28.81L358.66-28.81Q357.73-28.81 356.91-29.16 356.1-29.52 355.5-30.11 354.9-30.71 354.55-31.52 354.19-32.32 354.19-33.25L354.19-33.25Q354.19-34.16 354.55-34.97 354.9-35.79 355.5-36.39 356.1-36.99 356.91-37.34 357.73-37.7 358.66-37.7L358.66-37.7Q359.59-37.7 360.41-37.34 361.22-36.99 361.83-36.39 362.44-35.79 362.8-34.97 363.15-34.16 363.15-33.25ZM362-26.15L362 0 355.29 0 355.29-26.15 362-26.15ZM396.36-14.94L396.36 0 389.7 0 389.7-26.15 391.31-26.15 393.51-23.61Q395.12-25.07 397.16-25.87 399.2-26.66 401.42-26.66L401.42-26.66Q403.81-26.66 405.93-25.74 408.06-24.83 409.64-23.23 411.23-21.63 412.15-19.49 413.06-17.36 413.06-14.94L413.06-14.94 413.06 0 406.4 0 406.4-14.94Q406.4-15.97 406.01-16.88 405.62-17.8 404.93-18.48 404.25-19.17 403.35-19.56 402.44-19.95 401.42-19.95L401.42-19.95Q400.37-19.95 399.44-19.56 398.51-19.17 397.83-18.48 397.14-17.8 396.75-16.88 396.36-15.97 396.36-14.94L396.36-14.94ZM448.28-33.25L448.28-33.25Q448.28-32.32 447.92-31.52 447.57-30.71 446.96-30.11 446.35-29.52 445.53-29.16 444.71-28.81 443.78-28.81L443.78-28.81Q442.86-28.81 442.04-29.16 441.22-29.52 440.62-30.11 440.02-30.71 439.67-31.52 439.32-32.32 439.32-33.25L439.32-33.25Q439.32-34.16 439.67-34.97 440.02-35.79 440.62-36.39 441.22-36.99 442.04-37.34 442.86-37.7 443.78-37.7L443.78-37.7Q444.71-37.7 445.53-37.34 446.35-36.99 446.96-36.39 447.57-35.79 447.92-34.97 448.28-34.16 448.28-33.25ZM447.13-26.15L447.13 0 440.41 0 440.41-26.15 447.13-26.15ZM497.67-20.95L497.67-20.95 492.79-16.04Q492.42-17.07 491.79-17.88 491.15-18.7 490.36-19.26 489.57-19.82 488.64-20.12 487.71-20.41 486.74-20.41L486.74-20.41Q485.37-20.41 484.16-19.85 482.95-19.29 482.06-18.27 481.17-17.26 480.66-15.87 480.14-14.48 480.14-12.79L480.14-12.79Q480.14-11.43 480.66-10.23 481.17-9.03 482.06-8.13 482.95-7.23 484.16-6.71 485.37-6.2 486.74-6.2L486.74-6.2Q487.71-6.2 488.62-6.47 489.52-6.74 490.31-7.24 491.11-7.74 491.73-8.46 492.35-9.18 492.74-10.06L492.74-10.06 497.62-5.15Q496.7-3.83 495.49-2.78 494.28-1.73 492.88-1 491.47-0.27 489.92 0.11 488.37 0.49 486.74 0.49L486.74 0.49Q483.98 0.49 481.55-0.55 479.12-1.59 477.3-3.39 475.48-5.2 474.43-7.62 473.38-10.03 473.38-12.79L473.38-12.79Q473.38-15.8 474.43-18.41 475.48-21.02 477.3-22.96 479.12-24.9 481.55-26.03 483.98-27.15 486.74-27.15L486.74-27.15Q488.37-27.15 489.95-26.73 491.52-26.32 492.95-25.52 494.38-24.73 495.59-23.58 496.79-22.44 497.67-20.95Z" opacity="1" transform="matrix(1,0,0,1,0,0)" fill="white" class="slogan-text-1" id="SvgjsPath2342"></path></svg></g></svg></g></svg></g></svg></g><g><svg viewBox="0 0 227.07719389749775 190.57080773814087" height="190.57080773814087" width="227.07719389749775"><g><svg xmlns="http://www.w3.org/2000/svg" xmlns:xlink="http://www.w3.org/1999/xlink" version="1.0" x="0" y="0" viewBox="14.422253608703613 20.09999656677246 71.2554931640625 59.80000305175781" enable-background="new 0 0 100 100" xml:space="preserve" height="190.57080773814087" width="227.07719389749775" class="icon-icon-0" data-fill-palette-color="accent" id="SvgjsSvg2341"></svg></g></svg></g></svg></g><defs><mask></mask></defs><mask><g id="SvgjsG2340"><svg viewBox="0 0 395.52 118.8306373544587" height="118.8306373544587" width="395.52"><g><svg viewBox="0 0 634.3024623503065 190.57080773814087" height="118.8306373544587" width="395.52"><g transform="matrix(1,0,0,1,238.78246235030656,49.32042371032928)"><svg viewBox="0 0 395.52 91.92996031748231" height="91.92996031748231" width="395.52"><g id="SvgjsG2339"><svg viewBox="0 0 395.52 91.92996031748231" height="91.92996031748231" width="395.52" id="SvgjsSvg2338"><g><svg viewBox="0 0 395.52 49.582627852084975" height="49.582627852084975" width="395.52"><g transform="matrix(1,0,0,1,0,0)"><svg width="395.52" viewBox="1.2000000476837158 -35.0099983215332 277.5799865722656 35.0099983215332" height="49.582627852084975" data-palette-color="url(#f9952174-3ec1-4f4d-b701-b6c87d7e5b14)"><g class="wordmark-text-0" data-fill-palette-color="primary" id="SvgjsG2337"></g></svg></g></svg></g><g transform="matrix(1,0,0,1,0,61.28789630489379)"><svg viewBox="0 0 395.52 30.642064012588513" height="30.642064012588513" width="395.52"><g transform="matrix(1,0,0,1,0,0)"><svg width="395.52" viewBox="1.340000033378601 -37.70000076293945 496.33001708984375 38.459999084472656" height="30.642064012588513" data-palette-color="url(#2900af9b-36d0-4f75-a3a5-54917247de1d)"></svg></g></svg></g></svg></g></svg></g><g><svg viewBox="0 0 227.07719389749775 190.57080773814087" height="190.57080773814087" width="227.07719389749775"><g><svg xmlns="http://www.w3.org/2000/svg" xmlns:xlink="http://www.w3.org/1999/xlink" version="1.0" x="0" y="0" viewBox="14.422253608703613 20.09999656677246 71.2554931640625 59.80000305175781" enable-background="new 0 0 100 100" xml:space="preserve" height="190.57080773814087" width="227.07719389749775" class="icon-icon-0" data-fill-palette-color="accent" id="SvgjsSvg2336"></svg></g></svg></g></svg></g><defs><mask></mask></defs></svg></g></mask></svg></g></mask><linearGradient x1="0.054" x2="0.941" y1="0.5" y2="0.5" id="2900af9b-36d0-4f75-a3a5-54917247de1d"><stop stop-color="#0f3054" offset="0"></stop><stop stop-color="#3b8dcb" offset="0.498"></stop><stop stop-color="#0f3054" offset="1"></stop></linearGradient><rect width="395.5199890136719" height="118.83063507080078" fill="#000000" mask="url(#993f467e-7836-49fb-a156-e532476ce40f)" data-fill-palette-color="secondary"></rect><mask id="1f053e47-0bd0-4b18-b833-cf33958f1bd6"><g id="SvgjsG2367"><svg viewBox="0 0 395.52 118.8306373544587" height="118.8306373544587" width="395.52"><g><svg viewBox="0 0 634.3024623503065 190.57080773814087" height="118.8306373544587" width="395.52"><g transform="matrix(1,0,0,1,238.78246235030656,49.32042371032928)"><svg viewBox="0 0 395.52 91.92996031748231" height="91.92996031748231" width="395.52"><g id="SvgjsG2366"><svg viewBox="0 0 395.52 91.92996031748231" height="91.92996031748231" width="395.52" id="SvgjsSvg2365"><g><svg viewBox="0 0 395.52 49.582627852084975" height="49.582627852084975" width="395.52"><g transform="matrix(1,0,0,1,0,0)"><svg width="395.52" viewBox="1.2000000476837158 -35.0099983215332 277.5799865722656 35.0099983215332" height="49.582627852084975" data-palette-color="url(#f9952174-3ec1-4f4d-b701-b6c87d7e5b14)"><g class="wordmark-text-0" data-fill-palette-color="primary" id="SvgjsG2364"></g></svg></g></svg></g><g transform="matrix(1,0,0,1,0,61.28789630489379)"><svg viewBox="0 0 395.52 30.642064012588513" height="30.642064012588513" width="395.52"><g transform="matrix(1,0,0,1,0,0)"><svg width="395.52" viewBox="1.340000033378601 -37.70000076293945 496.33001708984375 38.459999084472656" height="30.642064012588513" data-palette-color="url(#2900af9b-36d0-4f75-a3a5-54917247de1d)"></svg></g></svg></g></svg></g></svg></g><g><svg viewBox="0 0 227.07719389749775 190.57080773814087" height="190.57080773814087" width="227.07719389749775"><g><svg xmlns="http://www.w3.org/2000/svg" xmlns:xlink="http://www.w3.org/1999/xlink" version="1.0" x="0" y="0" viewBox="14.422253608703613 20.09999656677246 71.2554931640625 59.80000305175781" enable-background="new 0 0 100 100" xml:space="preserve" height="190.57080773814087" width="227.07719389749775" class="icon-icon-0" data-fill-palette-color="accent" id="SvgjsSvg2363"><path d="M84 46.9c-0.3 0-0.6-0.1-0.9-0.3L50 23.7 16.9 46.6c-0.7 0.5-1.7 0.3-2.2-0.4-0.5-0.7-0.3-1.7 0.4-2.2l34-23.6c0.6-0.4 1.3-0.4 1.8 0L85 44c0.7 0.5 0.9 1.5 0.4 2.2C85.1 46.7 84.6 46.9 84 46.9z" fill="white"></path><path d="M56.2 79.9H45.5c-0.9 0-1.6-0.7-1.6-1.6v-9.8h-9.8c-0.9 0-1.6-0.7-1.6-1.6V56.1c0-0.9 0.7-1.6 1.6-1.6h9.8v-9.8c0-0.9 0.7-1.6 1.6-1.6h10.7c0.9 0 1.6 0.7 1.6 1.6v9.8h9.8c0.9 0 1.6 0.7 1.6 1.6v10.7c0 0.9-0.7 1.6-1.6 1.6h-9.8v9.8C57.8 79.2 57.1 79.9 56.2 79.9zM47.1 76.7h7.5v-9.8c0-0.9 0.7-1.6 1.6-1.6H66v-7.5h-9.8c-0.9 0-1.6-0.7-1.6-1.6v-9.8h-7.5v9.8c0 0.9-0.7 1.6-1.6 1.6h-9.8v7.5h9.8c0.9 0 1.6 0.7 1.6 1.6V76.7z" fill="white"></path></svg></g></svg></g></svg></g><defs><mask></mask></defs><mask><g id="SvgjsG2362"><svg viewBox="0 0 395.52 118.8306373544587" height="118.8306373544587" width="395.52"><g><svg viewBox="0 0 634.3024623503065 190.57080773814087" height="118.8306373544587" width="395.52"><g transform="matrix(1,0,0,1,238.78246235030656,49.32042371032928)"><svg viewBox="0 0 395.52 91.92996031748231" height="91.92996031748231" width="395.52"><g id="SvgjsG2361"><svg viewBox="0 0 395.52 91.92996031748231" height="91.92996031748231" width="395.52" id="SvgjsSvg2360"><g><svg viewBox="0 0 395.52 49.582627852084975" height="49.582627852084975" width="395.52"><g transform="matrix(1,0,0,1,0,0)"><svg width="395.52" viewBox="1.2000000476837158 -35.0099983215332 277.5799865722656 35.0099983215332" height="49.582627852084975" data-palette-color="url(#f9952174-3ec1-4f4d-b701-b6c87d7e5b14)"><g class="wordmark-text-0" data-fill-palette-color="primary" id="SvgjsG2359"></g></svg></g></svg></g><g transform="matrix(1,0,0,1,0,61.28789630489379)"><svg viewBox="0 0 395.52 30.642064012588513" height="30.642064012588513" width="395.52"><g transform="matrix(1,0,0,1,0,0)"><svg width="395.52" viewBox="1.340000033378601 -37.70000076293945 496.33001708984375 38.459999084472656" height="30.642064012588513" data-palette-color="url(#2900af9b-36d0-4f75-a3a5-54917247de1d)"></svg></g></svg></g></svg></g></svg></g><g><svg viewBox="0 0 227.07719389749775 190.57080773814087" height="190.57080773814087" width="227.07719389749775"><g><svg xmlns="http://www.w3.org/2000/svg" xmlns:xlink="http://www.w3.org/1999/xlink" version="1.0" x="0" y="0" viewBox="14.422253608703613 20.09999656677246 71.2554931640625 59.80000305175781" enable-background="new 0 0 100 100" xml:space="preserve" height="190.57080773814087" width="227.07719389749775" class="icon-icon-0" data-fill-palette-color="accent" id="SvgjsSvg2358"></svg></g></svg></g></svg></g><defs><mask></mask></defs></svg></g></mask><mask><g id="SvgjsG2357"><svg viewBox="0 0 395.52 118.8306373544587" height="118.8306373544587" width="395.52"><g><svg viewBox="0 0 634.3024623503065 190.57080773814087" height="118.8306373544587" width="395.52"><g transform="matrix(1,0,0,1,238.78246235030656,49.32042371032928)"><svg viewBox="0 0 395.52 91.92996031748231" height="91.92996031748231" width="395.52"><g id="SvgjsG2356"><svg viewBox="0 0 395.52 91.92996031748231" height="91.92996031748231" width="395.52" id="SvgjsSvg2355"><g><svg viewBox="0 0 395.52 49.582627852084975" height="49.582627852084975" width="395.52"><g transform="matrix(1,0,0,1,0,0)"><svg width="395.52" viewBox="1.2000000476837158 -35.0099983215332 277.5799865722656 35.0099983215332" height="49.582627852084975" data-palette-color="url(#f9952174-3ec1-4f4d-b701-b6c87d7e5b14)"><g class="wordmark-text-0" data-fill-palette-color="primary" id="SvgjsG2354"></g></svg></g></svg></g><g transform="matrix(1,0,0,1,0,61.28789630489379)"><svg viewBox="0 0 395.52 30.642064012588513" height="30.642064012588513" width="395.52"><g transform="matrix(1,0,0,1,0,0)"><svg width="395.52" viewBox="1.340000033378601 -37.70000076293945 496.33001708984375 38.459999084472656" height="30.642064012588513" data-palette-color="url(#2900af9b-36d0-4f75-a3a5-54917247de1d)"></svg></g></svg></g></svg></g></svg></g><g><svg viewBox="0 0 227.07719389749775 190.57080773814087" height="190.57080773814087" width="227.07719389749775"><g><svg xmlns="http://www.w3.org/2000/svg" xmlns:xlink="http://www.w3.org/1999/xlink" version="1.0" x="0" y="0" viewBox="14.422253608703613 20.09999656677246 71.2554931640625 59.80000305175781" enable-background="new 0 0 100 100" xml:space="preserve" height="190.57080773814087" width="227.07719389749775" class="icon-icon-0" data-fill-palette-color="accent" id="SvgjsSvg2352"></svg></g></svg></g></svg></g><defs><mask></mask></defs><mask><g id="SvgjsG2351"><svg viewBox="0 0 395.52 118.8306373544587" height="118.8306373544587" width="395.52"><g><svg viewBox="0 0 634.3024623503065 190.57080773814087" height="118.8306373544587" width="395.52"><g transform="matrix(1,0,0,1,238.78246235030656,49.32042371032928)"><svg viewBox="0 0 395.52 91.92996031748231" height="91.92996031748231" width="395.52"><g id="SvgjsG2350"><svg viewBox="0 0 395.52 91.92996031748231" height="91.92996031748231" width="395.52" id="SvgjsSvg2349"><g><svg viewBox="0 0 395.52 49.582627852084975" height="49.582627852084975" width="395.52"><g transform="matrix(1,0,0,1,0,0)"><svg width="395.52" viewBox="1.2000000476837158 -35.0099983215332 277.5799865722656 35.0099983215332" height="49.582627852084975" data-palette-color="url(#f9952174-3ec1-4f4d-b701-b6c87d7e5b14)"><g class="wordmark-text-0" data-fill-palette-color="primary" id="SvgjsG2348"></g></svg></g></svg></g><g transform="matrix(1,0,0,1,0,61.28789630489379)"><svg viewBox="0 0 395.52 30.642064012588513" height="30.642064012588513" width="395.52"><g transform="matrix(1,0,0,1,0,0)"><svg width="395.52" viewBox="1.340000033378601 -37.70000076293945 496.33001708984375 38.459999084472656" height="30.642064012588513" data-palette-color="url(#2900af9b-36d0-4f75-a3a5-54917247de1d)"></svg></g></svg></g></svg></g></svg></g><g><svg viewBox="0 0 227.07719389749775 190.57080773814087" height="190.57080773814087" width="227.07719389749775"><g><svg xmlns="http://www.w3.org/2000/svg" xmlns:xlink="http://www.w3.org/1999/xlink" version="1.0" x="0" y="0" viewBox="14.422253608703613 20.09999656677246 71.2554931640625 59.80000305175781" enable-background="new 0 0 100 100" xml:space="preserve" height="190.57080773814087" width="227.07719389749775" class="icon-icon-0" data-fill-palette-color="accent" id="SvgjsSvg2347"></svg></g></svg></g></svg></g><defs><mask></mask></defs></svg></g></mask></svg></g></mask></svg></g></mask><linearGradient x1="0.054" x2="0.941" y1="0.5" y2="0.5" id="480b736c-33f6-4285-9769-a203baf2861b"><stop stop-color="#0f3054" offset="0"></stop><stop stop-color="#3b8dcb" offset="0.498"></stop><stop stop-color="#0f3054" offset="1"></stop></linearGradient><rect width="395.5199890136719" height="118.83063507080078" fill="#000000" mask="url(#1f053e47-0bd0-4b18-b833-cf33958f1bd6)" data-fill-palette-color="accent"></rect></svg><rect width="395.52" height="118.8306373544587" fill="none" stroke="none" visibility="hidden"></rect></g></svg></g></svg>